<?xml version="1.0" encoding="utf-8"?>
<!-- Generator: Adobe Illustrator 16.0.0, SVG Export Plug-In . SVG Version: 6.00 Build 0)  -->
<!DOCTYPE svg PUBLIC "-//W3C//DTD SVG 1.1//EN" "http://www.w3.org/Graphics/SVG/1.1/DTD/svg11.dtd">
<svg version="1.1" id="Layer_1" xmlns="http://www.w3.org/2000/svg" xmlns:xlink="http://www.w3.org/1999/xlink" x="0px" y="0px"
	 width="128px" height="128px" viewBox="0 0 128 128" enable-background="new 0 0 128 128" xml:space="preserve">
<g>
	<path d="M64.376,9.788c-29.741,0-53.835,24.22-53.835,53.835c0,5.396,0.878,10.667,2.384,15.686
		c-0.502-8.659,1.38-22.713,7.53-34.259c8.91-17.317,30.118-26.854,49.945-22.337c18.195,4.141,31.246,19.2,33.631,36.894
		c-3.263-5.647-8.156-10.165-14.18-13.302c2.258,5.647,3.012,11.922,1.756,18.071c-1.506-6.651-5.521-12.8-11.796-16.565
		c-0.753-0.502-1.632-0.878-2.384-1.255c1.882,4.769,2.384,9.914,1.506,15.059c-1.256-5.647-4.644-10.667-9.914-13.929
		c-1.129-0.628-2.259-1.255-3.514-1.632c-12.925-5.772-28.486-0.878-35.639,11.796c-2.133,3.639-3.263,7.655-3.514,11.67
		c0.376-0.879,0.753-1.631,1.255-2.385c4.769-8.282,13.051-13.301,22.463-15.184c-3.514,3.263-6.526,7.278-8.534,11.921
		c-0.878,2.008-1.506,4.016-2.008,6.149s-0.753,4.267-0.878,6.4c0,1.129,0,2.258,0,3.514c0,0.878,0.125,1.883,0.251,2.761
		c1.38,9.913,7.027,18.823,15.31,24.345c6.525,2.761,13.553,4.267,21.082,4.267c7.404,0,14.432-1.506,20.831-4.142
		c13.177-9.787,21.836-25.474,21.836-43.168C118.086,34.008,93.992,9.788,64.376,9.788z"/>
	<path d="M63.749,0.878c-34.635,0-62.745,28.11-62.745,62.745s28.11,62.746,62.745,62.746c34.636,0,62.745-28.11,62.745-62.746
		C126.494,29.114,98.385,0.878,63.749,0.878z M64.376,121.977c-32.251,0-58.353-26.228-58.353-58.353
		C5.898,31.373,32.125,5.271,64.376,5.271c32.25,0,58.353,26.228,58.353,58.353S96.502,121.977,64.376,121.977z"/>
</g>
</svg>
