<?xml version="1.0" encoding="utf-8"?>
<!-- Generator: Adobe Illustrator 16.0.0, SVG Export Plug-In . SVG Version: 6.00 Build 0)  -->
<!DOCTYPE svg PUBLIC "-//W3C//DTD SVG 1.1//EN" "http://www.w3.org/Graphics/SVG/1.1/DTD/svg11.dtd">
<svg version="1.1" id="Layer_1" xmlns="http://www.w3.org/2000/svg" xmlns:xlink="http://www.w3.org/1999/xlink" x="0px" y="0px"
	 width="128px" height="128px" viewBox="0 0 128 128" enable-background="new 0 0 128 128" xml:space="preserve">
<g>
	<path d="M64.251,9.537c-29.616,0-53.71,24.094-53.71,53.71c0,20.329,5.396,28.36,22.086,37.521
		c2.008-1.506,7.529-9.411,17.945-9.411c1.38,0,9.914,2.384,11.168,3.012c7.655,4.266,19.953,9.913,29.616,4.894
		c13.553-5.897,26.604-15.687,26.604-36.016C117.961,33.631,93.867,9.537,64.251,9.537z M97.506,76.8l-8.91-3.514l2.26,5.146
		l-4.518,2.008l-4.268-9.537l-6.902-2.636l2.636,11.294c0.502,1.632,1.883,5.396,5.271,7.781c1.758,1.254,3.389,2.51,5.146,3.137
		c1.632,0.502,3.012,1.004,5.897,0.377c0,0-3.764,1.631-8.658,1.254c-2.133-0.125-5.146-1.254-7.655-2.76
		c0,0-0.753-0.377-1.004-0.628c0,0,0,0-0.126,0l0,0c-3.89-2.384-8.909-5.521-13.05-6.776c-2.133-0.753-11.921-6.902-35.012,5.145
		l11.921-10.792l-5.396-0.502l0.502-4.769l10.416,1.129l5.647-4.518l-11.169-3.012l9.789-6.274l-6.777-2.635l-9.663,4.141L32,55.467
		l5.145-2.259l-8.91-3.514l1.757-4.518l8.91,3.514l-2.259-5.146l4.392-1.882l4.141,9.538l6.526,2.635l-3.514-11.169l9.537,5.522
		l-1.129-7.153l-8.032-6.274l3.263-4.016l3.639,3.388l-1.255-8.408l5.145-0.753l1.255,8.408l3.639-4.518l4.267,2.886l-6.776,8.533
		l1.129,7.153l8.91-8.283l1.13,11.545l5.646-4.518l1.13-10.416l4.769,0.502l-0.627,5.521l7.403-6.023l3.012,3.765l-7.403,5.898
		l5.521,0.627l-0.502,4.769L81.568,49.82l-5.646,4.518l11.168,3.012l-9.788,6.274l6.776,2.635l9.537-4.141l2.008,4.392l-5.27,2.259
		l8.909,3.514L97.506,76.8z"/>
	<path d="M63.875,1.004c-34.635,0-62.745,28.11-62.745,62.745c0,34.636,28.11,62.745,62.745,62.745s62.745-28.109,62.745-62.745
		C126.619,29.114,98.51,1.004,63.875,1.004z M64.251,121.6C32,121.6,5.898,95.373,5.898,63.247
		c0-32.251,26.228-58.353,58.353-58.353c32.251,0,58.353,26.228,58.353,58.353C122.604,95.498,96.502,121.6,64.251,121.6z"/>
	<polygon points="68.267,57.224 67.891,49.443 62.369,54.965 55.467,51.326 57.475,58.855 50.949,63.122 58.479,65.129 
		58.729,72.91 64.251,67.389 71.278,71.027 69.271,63.498 75.796,59.231 	"/>
</g>
</svg>
