<svg xmlns="http://www.w3.org/2000/svg" xmlns:xlink="http://www.w3.org/1999/xlink" viewBox="0 0 99.8 99.8"><defs><style>.cls-1{fill:none;}.cls-2{clip-path:url(#clip-path);}.cls-3{fill:#000;}</style><clipPath id="clip-path" transform="translate(-0.18 -0.02)"><rect class="cls-1" width="100" height="100"/></clipPath></defs><title>icon-peril-wildfire</title><g id="Layer_2" data-name="Layer 2"><g id="All_Icons" data-name="All Icons"><g class="cls-2"><path class="cls-3" d="M50.08,0A49.9,49.9,0,1,0,100,49.92,49.92,49.92,0,0,0,50.08,0Zm.5,96.51A46.46,46.46,0,1,1,97,50,46.53,46.53,0,0,1,50.58,96.52Z" transform="translate(-0.18 -0.02)"/><circle class="cls-1" cx="50.4" cy="49.9" r="42.75"/><path class="cls-3" d="M22.47,82.1l.09.07.05-.07h-.14Z" transform="translate(-0.18 -0.02)"/><path class="cls-3" d="M7.93,52.62c0,.45.06.9.1,1.35,0,.26.05.52.08.78s.1.81.15,1.22.08.54.12.81.14.79.21,1.18.1.53.15.79c.09.44.2.88.31,1.32s.22.88.34,1.31.18.67.28,1,.22.69.34,1,.17.5.25.75.27.73.4,1.09l.25.63c.16.39.32.78.49,1.16l.19.42a42.68,42.68,0,0,0,3.14,5.75h0q.47.72,1,1.41h0q.49.7,1,1.37h0q.67.86,1.38,1.69c1.55-2,3.63-4.79,5.75-7.88H18.09c-.72,0-1-.51-.59-1.14,0,0,4.21-5.4,8.24-11.76H19.81c-.64,0-.87-.45-.52-1a142.66,142.66,0,0,0,8.46-12.3c2-3.33,4.41-8.17,4.41-8.17a.69.69,0,0,1,1.27,0s2.4,4.85,4.41,8.17c.53.89,1.08,1.76,1.63,2.61l.78,1.2,0,0L41,48.55l.06.08.69,1,.09.13.63.9.11.16.58.82.11.15.53.74.12.16.49.68.07.1.5.68c.8,1.08,1.31,1.73,1.31,1.73a.71.71,0,0,1,.1.72h0a.46.46,0,0,1-.08.1l0,0-.09.06-.1,0-.08,0-.22,0H39.86l.17.26h0c4,6.24,8.07,11.5,8.07,11.5.39.63.13,1.14-.59,1.14H41.77C46,75.93,50,80.88,50,80.88c.44.67.14,1.22-.67,1.22H43c3.56,5.08,6.92,9.25,8,10.55.82,0,1.64,0,2.46-.09a3.56,3.56,0,0,0-.34-.66L53,91.81,53,91.73s-2.62-3.16-5.82-7.5h2.25a2.82,2.82,0,0,0,2.43-4.51l-.06-.09-.07-.08S49,76.29,45.86,71.91h1.65a2.85,2.85,0,0,0,2.56-1.42,2.9,2.9,0,0,0-.18-3l-.06-.09-.07-.08s-2.83-3.64-6-8.33h2a2.76,2.76,0,0,0,2.48-1.38,2.79,2.79,0,0,0-.13-2.82l6.5-4,9.91,6.61h0l.63.42h0l14.6,9.74-2.35,3.55H72.19V86.8h0c.75-.44,1.48-.89,2.2-1.37h0c.68-.46,1.35-.94,2-1.43l.36-.28q.77-.59,1.51-1.22l.49-.42q.69-.6,1.35-1.24l.42-.4a43,43,0,0,0,3.23-3.55l.33-.42q.58-.73,1.12-1.48l.41-.58q.51-.72,1-1.47l.35-.55c.41-.66.81-1.34,1.19-2l0,0c.38-.7.74-1.42,1.09-2.15l.26-.59q.37-.8.7-1.62l.29-.73q.31-.8.58-1.62c.08-.23.16-.46.23-.69.24-.74.46-1.5.66-2.26l0-.07c.2-.78.38-1.58.54-2.38,0-.24.09-.48.13-.72.1-.57.2-1.14.27-1.72q.06-.42.11-.85c.07-.58.12-1.15.17-1.74,0-.26,0-.52.06-.78,0-.83.08-1.67.08-2.52a42.75,42.75,0,1,0-85.49,0c0,.68,0,1.36.05,2C7.9,52.17,7.91,52.39,7.93,52.62Zm31.77-11c.8-3.22,3.36-6,5.64-8.79s6-5.48,7.72-8.51,2.64-5.86,1.58-9.22l.09,0a16,16,0,0,1,9.59,6.16,13.8,13.8,0,0,1,3,9.57,16.56,16.56,0,0,1-1.2,5.56h0c3.45-.69,5.62-4.43,4.61-7.3l.12,0c5.49,1.9,7.1,6,7.89,10.46a14.75,14.75,0,0,1-4.78,13.86A18.76,18.76,0,0,1,68,57.08L66.39,56a7.74,7.74,0,0,0,2.3-5.72c-.17-4.07-4.26-6.63-6-10.25-.9-1.82-1.78-3.17-.75-5-3.56,1.84-6.15,4.68-6.41,8a6.5,6.5,0,0,0,.5,3.42,6.46,6.46,0,0,1-3.71-5.64c-4.41,3-5.93,7.48-4.71,11.78l-.75.46c-1.6-2.14-4.56-6.25-7.15-10.55l-.1-.17C39.6,42.08,39.64,41.83,39.7,41.6Z" transform="translate(-0.18 -0.02)"/><rect class="cls-3" x="58.78" y="71.1" width="6.98" height="6.98"/></g></g></g></svg>