<?xml version="1.0" encoding="utf-8"?>
<!-- Generator: Adobe Illustrator 16.0.0, SVG Export Plug-In . SVG Version: 6.00 Build 0)  -->
<!DOCTYPE svg PUBLIC "-//W3C//DTD SVG 1.1//EN" "http://www.w3.org/Graphics/SVG/1.1/DTD/svg11.dtd">
<svg version="1.1" id="Layer_1" xmlns="http://www.w3.org/2000/svg" xmlns:xlink="http://www.w3.org/1999/xlink" x="0px" y="0px"
	 width="128px" height="128px" viewBox="0 0 128 128" enable-background="new 0 0 128 128" xml:space="preserve">
<g>
	<path d="M63.624,9.412c-29.616,0-53.71,24.22-53.71,53.835c0,29.616,24.094,53.71,53.71,53.71s53.71-24.094,53.71-53.71
		C117.334,33.631,93.239,9.412,63.624,9.412z M92.988,45.176l-38.525,10.04l35.639-2.133c-1.129,3.012-2.51,6.274-4.016,9.412
		l-29.364,7.654L83.2,68.518c-2.008,4.016-4.142,8.031-6.526,11.922l-17.568,4.518l15.31-0.879
		c-6.275,9.412-13.804,17.945-22.839,23.467c3.765-8.282,3.514-17.945,1.255-27.231l18.823-4.894l-19.827,1.129
		c-1.129-3.639-2.384-7.152-3.89-10.666l21.207-5.522l-23.09,1.38c-1.631-3.514-3.388-6.776-5.02-9.663l25.852-6.651l-28.738,1.757
		C34.635,41.663,32,38.149,32,38.149l62.996-9.286L50.698,40.408l44.675-2.635C94.745,39.906,93.867,42.416,92.988,45.176z"/>
	<path d="M63.749,0.878c-34.635,0-62.745,28.11-62.745,62.745s28.11,62.746,62.745,62.746c34.636,0,62.745-28.11,62.745-62.746
		C126.494,29.114,98.385,0.878,63.749,0.878z M63.624,121.6c-32.125,0-58.353-26.227-58.353-58.353
		c0-32.125,26.228-58.479,58.353-58.479c32.251,0,58.353,26.228,58.353,58.353S95.875,121.6,63.624,121.6z"/>
</g>
</svg>
