<svg xmlns="http://www.w3.org/2000/svg" viewBox="0 0 100 100"><defs><style>.cls-1{fill:#555;}</style></defs><title>icon-peril_hwind</title><g id="Layer_2" data-name="Layer 2"><g id="Layer_4" data-name="Layer 4"><path d="M50,0a50,50,0,1,0,50,50A50,50,0,0,0,50,0Zm.5,96.7A46.55,46.55,0,1,1,97,50.1,46.55,46.55,0,0,1,50.5,96.7Z"/><path class="cls-1" d="M51.24,66.08l.16,0Z"/><path class="cls-1" d="M51.4,66l.3-.05C52.09,65.91,52.38,65.85,51.4,66Z"/><path d="M49.6,7h0A42.81,42.81,0,0,0,7.31,56.64l6.76,0c4,0,8.15-.27,11.69-2.31,2.57-1.48,4.64-4.33,3.45-7.41-1.11-2.86-4.85-2.05-7-.89a6.08,6.08,0,0,1,3.9-2.71,5.72,5.72,0,0,1,4.09.73c2.75,1.84,2.49,6,2.47,6.3-.43,5.58-7,10.21-12.47,11.2a50.76,50.76,0,0,1-8.76.32H8.51Q9,63.66,9.68,65.34c2.55,0,5,0,7-.07,1.58,0,3.76-.19,4.75-.3,4.2-.47,11.66-3.47,14.35-10.29,1.4-3.53,2.18-9.77-1.55-13.36A10,10,0,0,0,27.6,38.8c-1,0-4.7,0-6.84,2.86-1.86,2.47-2,6.56.05,8.19,1.05.85,3.06,1.34,4.28.34a3,3,0,0,0,1-1.92,1.85,1.85,0,0,1,.28,1.46c-.13,1.5-1.84,2.75-3.32,2.87-2.64.22-5.24-2.36-6.16-4.88-1.4-3.83.9-8.24,3.62-10.55,4.7-4,12.56-3.09,17.31.75,6.42,5.19,5.23,14.16,5,15.84A19.9,19.9,0,0,1,39.69,62a21.4,21.4,0,0,1-8.91,7.43A21.59,21.59,0,0,1,21.6,72H12.75c7.46,12,21.17,20.82,36.85,20.82A42.91,42.91,0,0,0,49.6,7Zm2.22,12.06c2.55-4.35,8.33-4.33,9-4.32,5.23.1,8.59,3.94,9.41,4.87,6.55,7.49,2.6,18.54,2.43,19A21.58,21.58,0,0,1,67.88,46a29.29,29.29,0,0,1-13.53,7.82A35.13,35.13,0,0,1,48.71,55a87.66,87.66,0,0,0,8-4.12,30,30,0,0,0,5.39-3.64,29.93,29.93,0,0,0,4-4.69,20.73,20.73,0,0,0,2.62-6.46c1.32-6.39-1-15.51-6.16-17.29-1.66-.57-4.46-.67-6,.88a4.44,4.44,0,0,0-1.18,2.52c0,.42-.24,2.22,1,3.11a2.43,2.43,0,0,0,2.62.16,3.48,3.48,0,0,0,1-1.76h0v0a5.73,5.73,0,0,1-.17,3.23,4.75,4.75,0,0,1-5.52,2.38,5.25,5.25,0,0,1-3-3.23A8.48,8.48,0,0,1,51.82,19.06Zm9.53,16.41a3.87,3.87,0,0,1,2.12,1,4.09,4.09,0,0,1,1.13,2.69c.19,2.71-2.14,4.92-3.82,6.51a26,26,0,0,1-4.33,3.15,53.55,53.55,0,0,1-6.51,3.43c.39-.22.92-.53,1.53-.92a36.13,36.13,0,0,0,5.32-4.19A20.63,20.63,0,0,0,60.49,43a8.13,8.13,0,0,0,1.61-4A6.94,6.94,0,0,0,61.36,35.47Zm-16-8.4A6.22,6.22,0,0,1,48.12,23s-1.75,3.73.4,6.62a7.31,7.31,0,0,0,5.23,2.82c-2.81,1.31-5.86.78-7.38-1.08A5.57,5.57,0,0,1,45.4,27.07ZM45.24,67.8c5.54-4.69,14.76-7,20.61-1.53,2.65,2.46,3.77,7.83-.44,9.52a3.4,3.4,0,0,1-3.13-.25,2.11,2.11,0,0,1,0-3.44c-.13,1.14.4,2.29,1.73,2.21,2.64-.17,2.2-3.67,1.08-5.11-3.1-4-8.83-4-13.37-3.2l-.46.09A44.68,44.68,0,0,0,45.24,67.8Zm21.6,13.13c-3.36.79-7.66-.85-8.88-4.25a4.81,4.81,0,0,1,1.17-5,6,6,0,0,0,.07,4.59c1,1.88,3.72,2.94,6.07,2.5a6.05,6.05,0,0,0,3-1.55c2.9-2.9,1.77-8.69-1-11.64-6.55-7-17.44-3.44-24.95-.32,6.21-4.77,14.13-8,21.91-5.29.7.25,7.45,3.18,8.7,9.74a10.25,10.25,0,0,1-1.27,7.58A8.19,8.19,0,0,1,66.84,80.92ZM77.41,75A6.33,6.33,0,0,1,76.16,78,5.56,5.56,0,0,1,74,79.73a5.38,5.38,0,0,1-2,.44A10.35,10.35,0,0,0,74.6,77a10,10,0,0,0,1.12-3.66,9.55,9.55,0,0,0-.48-4A6.6,6.6,0,0,1,77.41,75Z"/></g></g></svg>