<?xml version="1.0" encoding="utf-8"?>
<!-- Generator: Adobe Illustrator 19.0.0, SVG Export Plug-In . SVG Version: 6.00 Build 0)  -->
<svg version="1.1" xmlns="http://www.w3.org/2000/svg" xmlns:xlink="http://www.w3.org/1999/xlink" x="0px" y="0px"
	 viewBox="0 0 128.1 128.1" style="enable-background:new 0 0 128.1 128.1;" xml:space="preserve">
<style type="text/css">
	.st0{display:none;}
	.st1{fill:#000000;}
</style>
<g id="Layer_1" class="st0">
</g>
<g id="Type" class="st0">
</g>
<g id="All_Icons">
	<g>
		<path class="st1" d="M85.8,101.3c1-0.7,2-1.8,2.4-3c0.9-3-0.2-6.1-1-5.9c-0.7,0.2,0.1,4.3-1,6c-0.7,1-1.5,1.7-2.3,2.2
			c-2.4-0.6-5.8-0.3-7.6,0c0-0.2,0.1-0.4,0.1-0.6c0.6-3,2.1-7.1,2.8-9.4c1.1-3.9,1.3-5,1.3-5h-6c0,0-1.1,3.9-1.9,8.7
			c-2.1,0.2-5.9,0.6-8.5,0.5c-3.8-0.2-10.1-5.4-11.2-5c-1,0.4,2.2,4.1,6.5,6.3c-1.1,0.7-2.8,2-3.3,3.7c-0.9,3,0.2,6.1,1,5.9
			c0.7-0.2-0.1-4.3,1-6c1-1.4,2.4-2.3,3.3-2.7c3.5,1.2,8.1,1,10.7,0.8c-0.2,1.9-0.4,3.8-0.4,5.6c0,4.1,2.3,12.6,3.5,12.7
			c1,0.1,0-5.5,0.6-12.2l0,0.1c0,0,4.8-1,8.4-0.6c3.6,0.3,6.2,3.6,6.6,3C91.2,105.6,88.7,102.8,85.8,101.3z"/>
		<path class="st1" d="M64.1,0c-35.3,0-64,28.7-64,64c0,35.3,28.7,64,64,64s64-28.7,64-64C128.1,28.7,99.4,0,64.1,0z M64.7,123.8
			c-32.8,0-59.5-26.8-59.5-59.6c0-32.8,26.8-59.5,59.5-59.5c32.9,0,59.5,26.8,59.5,59.5C124.2,97.1,97.6,123.8,64.7,123.8z"/>
		<path class="st1" d="M64.7,9.4C34.5,9.4,9.9,34,9.9,64.2c0,7.6,1.5,14.8,4.3,21.3h60.3c0,0,12.4-53.4-6.6-57.6
			C53.7,24.8,52,37.3,51.9,41c2,0.3,4.6,1.4,7,4.6c5,6.7,4,14.9,4,14.9c0,0-1.1-1.3-4.9-3.4c-6.8-3.6-8.8-9-9.4-12.4
			c-0.8,3.4-3.2,8.6-10.2,11.7c-4,1.8-5.1,3.1-5.1,3.1c0,0.1-0.4-8.2,5-14.6c2.8-3.2,5.6-4.1,7.7-4.1C46,39.5,47.8,20.2,68,23
			C78.1,24.4,82,35.6,83,48.1c1.1-1.3,2.5-2.7,4.4-4c3.4-2.5,4.1-3.6,4.1-3.6c0-0.1,2.4,7.1-1.6,14.2c-2.1,3.6-4.6,4.4-6.6,4.3
			c-0.3,13.9-2.8,26.6-2.8,26.6h34.6c2.8-6.6,4.3-13.8,4.3-21.3C119.6,34,94.9,9.4,64.7,9.4z M48.2,54c0.2,0.1,4.3,4.3,4.1,9.3
			c-0.2,5.3-4.7,9.3-4.7,9.3v0h0v0c0,0.1-4.2-4.3-4.1-9.6C43.7,58,48.1,54.1,48.2,54z"/>
	</g>
</g>
</svg>
