<?xml version="1.0" encoding="utf-8"?>
<!-- Generator: Adobe Illustrator 16.0.0, SVG Export Plug-In . SVG Version: 6.00 Build 0)  -->
<!DOCTYPE svg PUBLIC "-//W3C//DTD SVG 1.1//EN" "http://www.w3.org/Graphics/SVG/1.1/DTD/svg11.dtd">
<svg version="1.1" id="Layer_1" xmlns="http://www.w3.org/2000/svg" xmlns:xlink="http://www.w3.org/1999/xlink" x="0px" y="0px"
	 width="128px" height="128px" viewBox="0 0 128 128" enable-background="new 0 0 128 128" xml:space="preserve">
<g>
	<path d="M63.749,1.004c-34.635,0-62.745,28.11-62.745,62.745c0,34.636,28.11,62.745,62.745,62.745
		c34.636,0,62.745-28.109,62.745-62.745C126.494,29.239,98.385,1.004,63.749,1.004z M62.871,122.228
		C30.62,122.228,4.518,96,4.518,63.875c0-32.251,26.228-58.353,58.353-58.353c32.25,0,58.353,26.228,58.353,58.353
		S94.996,122.228,62.871,122.228z"/>
	<path d="M33.38,69.271v-0.753V69.271z"/>
	<path d="M62.871,10.039c-29.616,0-53.835,24.094-53.835,53.835c0,29.616,24.094,53.709,53.71,53.709
		c29.616,0,53.71-24.094,53.71-53.709C116.58,34.133,92.486,10.039,62.871,10.039z M90.102,100.267
		c-0.376,1.506-2.008,2.886-3.262,3.64c-1.632,1.004-3.514,1.506-5.396,1.506c-2.385,0-4.644-0.754-6.4-2.134
		c-3.514,2.886-9.16,2.886-12.8,0c-3.514,2.886-9.161,2.886-12.8,0c-3.012,2.384-7.404,2.761-10.918,1.13
		c-1.506-0.754-2.886-1.758-3.765-3.264s-0.251-3.388,1.757-3.514c1.882-0.125,2.384,1.883,3.89,2.636
		c1.38,0.753,3.137,0.878,4.643,0.376c0.753-0.25,1.506-0.627,2.008-1.254c0.628-0.628,0.879-1.256,1.757-1.506
		c1.882-0.502,2.384,0.878,3.514,1.882c1.38,1.13,3.388,1.506,5.145,1.004c0.878-0.251,1.757-0.628,2.384-1.38
		c0.753-0.879,1.129-1.758,2.384-1.758c1.757,0,2.133,1.883,3.514,2.636c1.255,0.753,2.886,0.878,4.267,0.502
		c0.753-0.126,1.381-0.502,2.008-0.878c0.627-0.502,0.879-1.13,1.381-1.632c1.004-0.878,2.635-0.628,3.514,0.251
		c1.004,1.129,1.756,2.008,3.388,2.259c1.381,0.251,2.761,0.126,4.017-0.628c1.254-0.752,1.756-2.384,3.262-2.635
		C88.973,97.381,90.479,98.761,90.102,100.267z M99.137,89.224c-2.384,4.016-6.775,5.897-11.293,5.897
		c-3.514,0-5.898-1.004-8.408-2.76c-2.51,1.756-5.02,2.76-8.031,2.76c-3.264,0-6.4-1.129-9.036-3.012
		c-5.02,3.64-11.921,3.389-16.941-0.25c-4.016,2.886-9.537,3.388-14.18,1.631c-2.008-0.753-3.89-2.008-5.271-3.639
		c-0.753-0.754-1.506-1.632-0.753-2.762c0.627-0.878,2.133-1.129,3.263-1.004c2.384,0.252,3.137,2.762,5.145,3.64
		c1.882,0.878,4.392,0.878,6.4,0.126c1.882-0.879,2.51-3.138,4.769-3.389c0.878-0.125,1.757,0,2.51,0.377
		c1.004,0.502,1.381,1.38,2.134,2.133c1.757,1.757,4.518,2.008,6.902,1.381c1.255-0.377,2.259-1.004,3.012-2.008
		c0.878-1.13,1.757-1.758,3.137-1.758c2.51,0,3.137,2.26,4.895,3.389c1.631,1.129,3.764,1.506,5.771,1.004
		c0.879-0.251,1.632-0.627,2.26-1.129c0.752-0.628,1.129-1.632,1.882-2.134c1.255-1.004,3.263-1.004,4.644-0.126
		c0.753,0.502,1.004,1.256,1.631,1.883c0.754,0.753,1.506,1.255,2.51,1.506c1.883,0.502,4.142,0.251,5.773-0.879
		c1.631-1.254,2.258-3.262,4.643-3.388c1.004,0,2.008,0.376,2.761,0.878C99.765,87.844,99.639,88.471,99.137,89.224z M92.863,69.02
		v8.784c0,2.761-3.138,4.644-5.647,4.769c-1.38,0.126-2.636-0.25-3.765-1.004c-1.255-0.753-1.631-2.133-2.761-2.886
		c-0.879-0.628-2.134-0.628-3.138-0.251c-1.129,0.502-1.381,1.757-2.259,2.51c-1.882,1.631-4.644,1.883-6.901,1.129
		c-1.381-0.502-2.26-1.255-3.138-2.51c-0.753-1.129-1.882-1.757-3.263-1.506c-1.506,0.377-1.882,1.883-3.012,2.761
		c-0.878,0.753-2.008,1.255-3.137,1.381c-2.259,0.376-5.02-0.251-6.525-2.134c-0.753-1.004-1.255-1.883-2.636-2.008
		c-1.004-0.125-2.133,0.377-2.761,1.13c-0.878,1.129-1.506,2.008-2.886,2.636c-1.004,0.376-2.259,0.627-3.388,0.502
		c-1.631-0.126-5.02-0.628-5.02-2.762V69.02h-7.906l-5.271-6.149l14.431-11.168v-6.526h11.294l0,0l17.569-11.043l42.917,28.737
		l-4.016,6.149H92.863z"/>
	<rect x="71.529" y="69.02" width="10.039" height="8.784"/>
</g>
</svg>
