<?xml version="1.0" encoding="utf-8"?>
<!-- Generator: Adobe Illustrator 16.0.0, SVG Export Plug-In . SVG Version: 6.00 Build 0)  -->
<!DOCTYPE svg PUBLIC "-//W3C//DTD SVG 1.1//EN" "http://www.w3.org/Graphics/SVG/1.1/DTD/svg11.dtd">
<svg version="1.1" id="Layer_1" xmlns="http://www.w3.org/2000/svg" xmlns:xlink="http://www.w3.org/1999/xlink" x="0px" y="0px"
	 width="128px" height="128px" viewBox="0 0 128 128" enable-background="new 0 0 128 128" xml:space="preserve">
<g>
	<path d="M114.949,44.423c-4.142,5.773-9.914,2.635-9.914,2.635s-0.251-0.502-0.879-1.38c-1.506,2.51-4.141,4.644-8.156,5.522
		c-8.658,1.882-13.428,4.267-18.322,10.541c0.628-5.647,5.271-11.168,9.789-14.306c-4.016,0-7.78,0.251-9.914,2.886
		c0.753-6.526,8.785-12.675,11.922-12.549c-0.753-0.627-1.757-1.506-1.757-2.886c0-1.129,0.376-2.384,1.13-3.388
		c-0.502-0.502-0.754-1.129-0.879-1.506c-1.506,1.129-3.389,2.008-5.772,2.635c-11.169,2.886-16.941,6.149-21.71,14.431
		C58.98,35.639,71.278,24.345,77.176,24.22c-1.756-1.129-4.016-2.635-4.518-5.02c-0.627-3.263,0.252-6.651,3.012-8.534
		c-3.639-0.753-7.277-1.129-11.168-1.129c-29.49,0-53.584,24.094-53.584,53.71c0,26.479,19.075,48.439,44.298,52.957
		c0.627-1.632,2.259-3.263,3.263-4.142c4.141-3.765,9.16-5.646,10.416-6.274c0,0,3.388-3.263,2.008-7.905
		c-2.51-9.914-8.785-21.836-20.079-28.486c-0.125,1.38-1.004,2.51-2.635,3.89c0,0-1.632,1.632-1.757,1.757
		c-1.004,1.004-2.133,2.259-3.388,3.639c-1.255-2.51-1.38-4.016-1.631-3.639s-0.627,2.385,0.376,5.02
		c-1.255,1.381-2.635,2.636-4.141,3.514c-0.878-1.506-1.506-2.384-1.757-2.133s0,1.255,0.502,2.761
		c-3.388,1.632-7.404-0.376-8.282-2.385c-0.125-0.251,2.761-1.38,5.271-5.396c1.506-2.134,2.886-5.146,4.267-7.781
		c-0.502-1.506-1.129-1.882-1.506,1.004c-0.376,0.502-0.878,2.134-2.008,2.385c-0.878-2.51-1.757-2.133-1.255,0.251
		c-1.129,0.376-1.882,0.628-3.012,1.13c-0.627-1.506-0.753-2.887-0.878-2.636c-0.125,0.126-0.753,1.757-0.376,3.138
		c-2.384,1.129-3.89,2.133-4.518,0.125c-0.251-0.627,2.761-9.914,6.776-12.047c-0.627-2.635-1.631-2.51-1.38,0.251
		c-1.38-0.125-2.886-0.125-4.267,0c-0.376-1.882-0.251-2.886-0.376-2.761c-0.251,0.125-0.878,1.129-0.753,2.886
		c-3.012,0.251-4.392-0.251-5.396-1.631c1.631-2.635,6.776-7.655,11.67-7.906c0.125,0,0.251,0,0.376,0
		c-1.882-3.263-4.769-3.137-4.643-3.765c0,0,3.514-3.263,8.157-2.761c0.376,0.125,5.02,1.381,5.396,1.506
		c-0.502-2.133-2.133-3.514-4.769-6.149c-1.004-1.004,8.533,0,14.683,8.157c3.137,4.141,4.392,11.419,4.016,14.431
		c17.318,8.784,25.349,29.364,25.976,41.913c1.13,0.502,2.134,1.13,3.264,1.883c1.38,1.004,3.764,1.883,5.396,2.636
		c0.376,0.125,0.753,0.376,1.004,0.502c17.192-9.036,29.114-27.106,29.114-47.938C118.338,56.596,117.208,50.322,114.949,44.423z"/>
	<path d="M64.125,0.627C29.49,0.627,1.38,28.737,1.38,63.373s28.11,62.745,62.745,62.745s62.746-28.109,62.746-62.745
		S98.761,0.627,64.125,0.627z M64.627,121.726c-32.25,0-58.353-26.228-58.353-58.479c0-32.125,26.102-58.353,58.353-58.353
		c32.252,0,58.354,26.228,58.354,58.353C122.98,95.498,96.879,121.726,64.627,121.726z"/>
</g>
</svg>
