<?xml version="1.0" encoding="utf-8"?>
<!-- Generator: Adobe Illustrator 16.0.0, SVG Export Plug-In . SVG Version: 6.00 Build 0)  -->
<!DOCTYPE svg PUBLIC "-//W3C//DTD SVG 1.1//EN" "http://www.w3.org/Graphics/SVG/1.1/DTD/svg11.dtd">
<svg version="1.1" id="Layer_1" xmlns="http://www.w3.org/2000/svg" xmlns:xlink="http://www.w3.org/1999/xlink" x="0px" y="0px"
	 width="128px" height="128px" viewBox="0 0 128 128" enable-background="new 0 0 128 128" xml:space="preserve">
<g>
	<path d="M64.376,9.788c-29.741,0-53.835,24.22-53.835,53.835s24.094,53.71,53.71,53.71c29.616,0,53.71-24.095,53.71-53.71
		C118.086,34.008,93.992,9.788,64.376,9.788z M87.592,98.635c-1.631,1.13-5.771,6.149-17.693,6.149
		c18.195-8.407,24.219-19.2,24.471-30.745c0.376-21.082-9.914-36.016-28.863-36.016c-15.435,0-28.11,12.549-28.11,28.109
		c0,12.047,9.789,21.836,21.961,21.836c9.286,0,16.941-7.655,16.941-16.941c0-7.153-5.772-13.051-12.925-13.051
		c-3.137,0-5.772,1.506-7.655,3.765c1.631-1.129,3.514-1.757,5.647-1.757s4.141,0.753,5.772,1.882
		c2.636,1.631,4.895,4.643,4.895,8.032c0,6.023-5.271,10.917-11.294,10.917c-7.153,0-12.926-5.772-12.926-12.925
		c0-8.534,6.902-15.436,15.436-15.436c10.29,0,18.698,8.408,18.698,18.697c0,10.04-6.651,18.699-15.813,21.585
		C61.365,94.996,56.094,96.125,50.698,96c-17.569-0.627-31.373-15.185-31.247-32.627c3.012,9.914,10.416,18.071,20.078,21.961
		c-2.51-2.134-3.639-3.891-5.647-6.777c-1.631-2.635-1.882-2.761-3.765-7.404c-6.274-16.438-1.38-34.76,14.055-42.917
		c-6.776,6.776-10.416,16.063-10.165,25.6c4.894-12.549,17.067-21.459,31.373-21.459c21.835,0,35.012,15.686,35.012,39.78
		C100.643,84.58,92.737,95.247,87.592,98.635z M99.389,41.286c-4.142-5.898-11.169-10.416-18.07-13.051
		c-10.291-3.89-21.459-2.761-27.232,0.125c9.537-7.153,22.462-9.161,34.133-4.016c8.282,3.639,14.683,10.29,17.944,18.823
		c2.887,7.404,3.012,15.436,0.628,22.964C107.168,56.094,103.654,46.682,99.389,41.286z"/>
	<path d="M63.749,0.878c-34.635,0-62.745,28.11-62.745,62.745s28.11,62.746,62.745,62.746c34.636,0,62.745-28.11,62.745-62.746
		C126.494,29.114,98.385,0.878,63.749,0.878z M64.376,121.977c-32.251,0-58.353-26.228-58.353-58.353
		C5.898,31.373,32.125,5.271,64.376,5.271c32.25,0,58.353,26.228,58.353,58.353S96.502,121.977,64.376,121.977z"/>
</g>
</svg>
